<svg width="887" height="298" viewBox="0 0 887 298" fill="none" xmlns="http://www.w3.org/2000/svg">
<path d="M46.025 215.075C54.425 205.508 58.625 191.217 58.625 172.2C58.625 166.367 58.275 159.775 57.575 152.425C56.525 140.525 53.9 123.958 49.7 102.725C45.0334 77.6417 42.7 60.2 42.7 50.4C42.7 43.4 43.8667 37.9167 46.2 33.95C43.2834 38.7333 41.825 45.5 41.825 54.25C41.825 57.05 42 60.7833 42.35 65.45C42.9334 73.15 45.0917 86.45 48.825 105.35C50.8084 115.267 52.675 125.3 54.425 135.45C56.525 148.4 57.575 160.475 57.575 171.675C57.575 189.992 53.725 204.458 46.025 215.075ZM31.325 227.675C37.5084 221.375 42.2917 214.55 45.675 207.2C50.8084 195.767 53.375 182.467 53.375 167.3C53.375 164.617 53.2 160.475 52.85 154.875C52.5 149.275 51.625 142.158 50.225 133.525C48.825 124.775 47.25 116.025 45.5 107.275C43.75 98.408 42.175 89.775 40.775 81.375C39.4917 72.8583 38.7917 64.75 38.675 57.05V55.475C38.675 39.6083 42.525 27.3 50.225 18.55L50.05 18.375C41.4167 27.825 37.1 40.5417 37.1 56.525L37.275 63.35C37.3917 71.05 39.725 86.1583 44.275 108.675C45.9084 116.958 47.425 125.358 48.825 133.875C51.0417 147.175 52.15 158.55 52.15 168C52.15 173.367 51.7417 179.317 50.925 185.85C50.1084 192.383 48.125 199.325 44.975 206.675C41.825 214.142 37.275 221.142 31.325 227.675ZM19.95 239.05C17.6167 239.05 15.225 238.642 12.775 237.825C4.25836 234.675 0 229.775 0 223.125C0 220.675 0.64167 218.342 1.92496 216.125C4.95836 210.992 9.33336 206.208 15.05 201.775C21.9334 196.408 27.7084 192.558 32.375 190.225C36.3417 188.242 39.375 186.55 41.475 185.15C42.2917 184.1 42.875 179.608 43.225 171.675L43.575 165.375L43.4 161.175C43.2834 160.358 43.225 159.483 43.225 158.55C43.225 157.5 43.2834 156.567 43.4 155.75C43.4 153.533 43.2834 151.958 43.05 151.025C42.7 149.625 42.4084 146.825 42.175 142.625C42.175 141.225 41.8834 139.533 41.3 137.55C40.7167 135.45 40.425 133.992 40.425 133.175V132.825C40.425 131.658 40.3084 130.842 40.075 130.375C39.8417 129.908 39.6084 129.383 39.375 128.8C39.2584 128.1 39.2 127.517 39.2 127.05C39.2 125.533 38.675 123.2 37.625 120.05C36.925 117.25 36.3417 114.508 35.875 111.825L34.125 104.125L32.725 95.725C31.9084 92.575 31.2667 88.55 30.8 83.65C30.6834 82.4833 30.5084 81.375 30.275 80.325L29.75 75.6C29.75 73.7333 29.6917 72.3917 29.575 71.575L29.4 65.8C29.4 56.35 30.1 48.1833 31.5 41.3C32.2 38.2667 33.5417 34.7083 35.525 30.625C37.625 26.5417 39.4334 23.6833 40.95 22.05C41.65 21.35 42.35 20.5333 43.05 19.6C46.6667 14.8167 51.8 10.5 58.45 6.65C64.75 3.26666 72.9167 1.04999 82.95 0H84.35C87.15 0 90.3 0.52499 93.8005 1.57499C98.0005 2.85832 101.675 4.4917 104.825 6.475C110.075 9.7417 114.041 15.575 116.725 23.975C118.591 29.8083 119.525 35.4667 119.525 40.95C119.525 47.6 118.591 54.775 116.725 62.475C115.441 67.9583 114.216 72.1 113.05 74.9C110.6 80.0333 108.85 82.6 107.8 82.6C106.75 82.6 106.225 82.425 106.225 82.075V81.55C106.225 80.9667 106.575 80.0917 107.275 78.925C110.891 72.275 113.516 62.8833 115.15 50.75C115.733 46.2 116.025 42.175 116.025 38.675C116.025 33.425 114.916 28 112.7 22.4C111.183 18.0833 108.966 14.525 106.05 11.725C103.25 8.925 100.1 6.8833 96.6005 5.6C93.1005 4.3167 89.5417 3.675 85.925 3.675C84.875 3.675 83.5334 3.85 81.9 4.2C76.5334 5.3667 72.3334 6.8833 69.3 8.75C66.3834 10.5 63.875 13.0667 61.775 16.45C55.0084 26.7167 51.2167 38.6167 50.4 52.15C50.2834 54.1333 50.225 56.5833 50.225 59.5L50.4 61.6C50.4 67.3167 51.3917 74.7833 53.375 84L54.775 91.525C55.7084 96.425 57.05 101.967 58.8 108.15L61.6 120.225C61.6 120.575 62.0084 122.383 62.825 125.65C64.4584 132.417 65.45 138.95 65.8 145.25L66.85 168.35C66.9667 168.583 67.025 170.683 67.025 174.65L72.8 172.2C77 170.45 81.7834 167.708 87.15 163.975C92.6335 160.125 98.0005 155.808 103.25 151.025C108.5 146.125 113.05 141.167 116.9 136.15C117.016 135.917 117.191 135.742 117.425 135.625C117.658 135.625 118.066 135.8 118.65 136.15C119.233 136.383 119.583 136.733 119.7 137.2C119.7 137.783 119.35 138.542 118.65 139.475C105.7 156.858 89.4834 169.75 70 178.15C68.25 178.967 67.2584 179.55 67.025 179.9C66.9084 180.133 66.85 180.425 66.85 180.775C66.85 183.808 66.4417 187.425 65.625 191.625C65.275 193.492 64.9834 194.6 64.75 194.95C64.5167 195.3 64.4 195.883 64.4 196.7C64.4 197.633 64.1667 198.8 63.7 200.2C62.8834 201.483 62.3584 202.767 62.125 204.05C61.6584 206.15 60.9 208.25 59.85 210.35C58.45 212.567 57.75 214.142 57.75 215.075V215.25C57.75 216.067 56.4084 218.167 53.725 221.55C52.5584 222.717 51.5667 224 50.75 225.4C49.2334 227.733 47.0167 229.892 44.1 231.875C43.05 232.108 41.8834 232.75 40.6 233.8C33.95 237.3 27.0667 239.05 19.95 239.05ZM12.25 231.525C15.4 231.525 19.6 229.425 24.85 225.225C27.3 223.125 29.3417 221.025 30.975 218.925C31.7917 217.992 32.2 217.292 32.2 216.825C32.3167 216.475 33.1917 214.667 34.825 211.4L37.1 205.8V205.45C37.1 204.983 37.3917 204.05 37.975 202.65C38.5584 201.25 39.025 199.5 39.375 197.4L40.95 191.275C32.3167 195.825 25.2584 200.55 19.775 205.45C11.4917 212.8 7.34996 219.158 7.34996 224.525C7.34996 225.808 7.58336 227.033 8.04996 228.2C8.98336 230.417 10.3834 231.525 12.25 231.525ZM140.421 140.525L143.221 138.425C151.271 131.542 155.296 123.2 155.296 113.4L155.121 111.125C151.854 114.742 150.104 116.9 149.871 117.6C149.754 118.3 149.287 119.233 148.471 120.4C147.654 121.567 147.012 122.792 146.546 124.075C146.079 125.242 145.729 126 145.496 126.35C145.262 126.7 145.087 127.167 144.971 127.75C144.971 128.333 144.562 129.325 143.746 130.725C142.929 132.125 142.462 133.642 142.346 135.275C141.996 136.325 141.587 137.317 141.121 138.25C140.654 139.067 140.362 139.767 140.246 140.35L140.421 140.525ZM141.471 193.725C132.021 193.725 124.671 190.692 119.421 184.625C114.171 178.558 111.546 170.917 111.546 161.7C111.546 157.967 111.896 154.467 112.596 151.2C113.412 147 113.879 144.55 113.996 143.85C113.996 143.15 114.229 142.1 114.696 140.7C115.629 137.55 116.504 135.333 117.321 134.05C117.671 133.583 117.846 133.117 117.846 132.65C117.846 132.183 118.721 130.317 120.471 127.05C122.221 123.667 123.271 121.858 123.621 121.625C124.437 120.925 125.196 119.992 125.896 118.825C128.112 115.442 131.087 112.292 134.821 109.375C139.487 105.758 143.746 103.775 147.596 103.425L151.971 103.25C153.371 103.25 154.362 103.367 154.946 103.6C160.429 105.7 163.171 109.142 163.171 113.925C163.171 117.892 161.712 122.792 158.796 128.625C154.829 135.858 148.704 141.75 140.421 146.3L138.321 147.175C138.321 147.408 138.087 148.4 137.621 150.15C137.271 151.9 137.096 153.183 137.096 154C136.979 155.4 136.687 156.275 136.221 156.625C135.287 159.075 134.354 166.717 133.421 179.55C133.421 182.583 133.654 184.625 134.121 185.675C134.587 186.725 136.396 187.542 139.546 188.125C142.462 188.125 145.671 187.133 149.171 185.15C155.121 180.95 160.137 175.583 164.221 169.05C164.804 169.05 167.371 164.442 171.921 155.225C176.354 147.525 179.737 141.283 182.071 136.5C182.421 135.567 183.004 135.1 183.821 135.1C185.571 135.1 186.446 135.742 186.446 137.025C186.446 138.075 182.712 145.717 175.246 159.95C174.196 162.05 173.379 163.8 172.796 165.2C171.162 168.817 167.954 173.483 163.171 179.2C163.171 179.783 161.421 181.883 157.921 185.5C155.004 188.65 152.379 190.808 150.046 191.975C147.829 193.142 144.971 193.725 141.471 193.725ZM120.296 174.475L120.646 166.25C121.462 154.233 123.796 143.908 127.646 135.275C128.579 132.942 132.254 125.533 138.671 113.05C134.587 117.717 131.087 123.317 128.171 129.85C122.804 141.283 120.121 153.767 120.121 167.3L120.296 174.475ZM125.021 178.5L125.371 169.925C125.604 164.442 126.246 159.075 127.296 153.825C128.346 148.575 129.804 143.442 131.671 138.425C133.537 133.292 135.521 128.1 137.621 122.85C129.104 135.917 124.846 152.308 124.846 172.025L125.021 178.5ZM133.937 294L134.987 293.65C136.854 293.65 139.654 291.783 143.387 288.05C147.004 284.317 149.279 281.167 150.212 278.6L151.262 276.85L153.362 272.125C155.696 266.758 156.862 263.317 156.862 261.8C156.862 261.45 157.154 260.517 157.737 259C158.321 257.6 158.962 254.975 159.662 251.125C160.012 249.375 160.304 248.208 160.537 247.625C160.654 247.158 160.887 246.167 161.237 244.65C161.587 243.25 161.937 241.733 162.287 240.1C162.521 238.467 162.754 237.067 162.987 235.9C163.337 233.683 163.629 231.758 163.862 230.125C164.096 228.492 164.329 227.442 164.562 226.975C164.679 226.625 164.912 225.575 165.262 223.825C165.496 221.375 165.904 219.158 166.487 217.175V216.3L164.212 219.45C162.929 220.967 161.412 223.008 159.662 225.575L155.462 231.7C152.312 236.6 149.746 240.275 147.762 242.725C140.996 252.175 136.271 259.525 133.587 264.775C130.321 271.075 128.687 278.017 128.687 285.6C128.687 288.633 129.737 291.083 131.837 292.95C132.537 293.65 133.062 294 133.412 294H133.937ZM136.037 297.15C131.021 297.15 127.462 295.167 125.362 291.2C124.779 290.033 124.429 288.983 124.312 288.05C124.079 287.117 123.962 285.25 123.962 282.45C123.962 280.7 124.196 278.717 124.662 276.5C127.346 264.6 134.579 250.308 146.362 233.625L152.837 225.05C155.987 220.617 160.537 214.55 166.487 206.85C168.354 204.4 169.346 202.242 169.462 200.375C169.462 198.508 169.521 197.458 169.637 197.225C169.754 197.108 169.871 196.817 169.987 196.35C170.104 195.883 170.221 195.358 170.337 194.775C170.337 194.192 170.454 193.492 170.687 192.675C171.387 189.525 171.737 187.6 171.737 186.9C171.854 185.617 172.029 184.508 172.262 183.575C173.312 177.392 174.129 171.733 174.712 166.6C174.712 164.967 174.829 164.033 175.062 163.8C175.296 163.567 175.587 162.517 175.937 160.65C175.937 160.067 175.996 159.542 176.112 159.075C176.229 157.792 176.346 156.917 176.462 156.45C176.579 155.983 176.812 155.225 177.162 154.175C177.162 153.008 177.337 152.25 177.687 151.9C177.921 151.55 178.096 151.083 178.212 150.5C178.446 147.933 178.796 145.892 179.262 144.375L180.487 141.4C180.837 139.767 181.829 135.917 183.462 129.85L185.212 123.025C185.562 121.625 185.737 120.75 185.737 120.4C185.737 120.05 186.146 119.233 186.962 117.95L187.137 117.25C187.137 116.55 187.254 116.2 187.487 116.2L189.237 112.175C190.871 107.975 193.087 105.875 195.887 105.875C201.254 105.875 203.937 109.2 203.937 115.85C203.937 118.183 203.704 121.975 203.237 127.225C201.721 143.442 200.496 153.3 199.562 156.8C199.329 157.267 199.154 157.967 199.037 158.9C198.571 163.333 198.221 165.725 197.987 166.075C197.871 166.425 197.812 166.658 197.812 166.775V167.125C198.046 167.125 199.154 165.9 201.137 163.45C209.537 152.833 217.704 144.083 225.637 137.2C227.154 135.917 228.321 135.275 229.137 135.275C229.721 135.275 230.246 135.508 230.712 135.975C231.179 136.442 231.412 136.908 231.412 137.375C231.412 137.842 230.771 138.542 229.487 139.475C227.504 140.875 217.354 152.25 199.037 173.6C196.937 175.7 195.246 180.542 193.962 188.125L192.737 193.375C192.271 195.708 191.629 198.508 190.812 201.775C190.462 203.992 189.937 206.383 189.237 208.95C188.654 210.7 188.012 213.383 187.312 217C187.196 217.583 186.962 218.05 186.612 218.4C186.379 218.75 186.262 219.392 186.262 220.325C186.262 221.258 186.087 222.075 185.737 222.775C185.387 223.592 184.921 224.933 184.337 226.8L183.462 229.6C182.412 232.75 181.887 234.5 181.887 234.85C181.887 235.317 181.771 235.958 181.537 236.775C181.187 237.592 180.837 238.525 180.487 239.575C180.137 240.625 179.729 241.675 179.262 242.725C178.096 245.058 177.512 246.692 177.512 247.625C177.512 247.975 177.104 248.85 176.287 250.25C175.471 251.65 175.062 252.525 175.062 252.875C175.062 253.342 174.421 255.092 173.137 258.125C172.554 259.292 172.204 260.167 172.087 260.75C171.854 261.333 171.562 261.858 171.212 262.325C170.629 263.492 170.337 264.192 170.337 264.425C170.337 264.658 170.221 264.892 169.987 265.125V265.3C169.521 265.533 168.879 266.583 168.062 268.45L165.087 273.525L162.287 277.725C158.204 284.142 153.246 289.275 147.412 293.125C143.446 295.808 139.654 297.15 136.037 297.15ZM203.762 89.25H203.237C199.037 89.25 196.937 87.15 196.937 82.95C196.937 74.55 198.687 70.2333 202.187 70C203.704 70 205.571 70.6417 207.787 71.925C209.304 72.7417 210.354 73.6167 210.937 74.55C211.637 75.4833 211.987 77 211.987 79.1C211.987 80.6167 211.637 82.1917 210.937 83.825C209.304 87.4417 206.912 89.25 203.762 89.25ZM170.862 246.4C174.246 236.25 178.271 221.958 182.937 203.525C190.404 173.425 194.137 153.125 194.137 142.625C194.137 140.992 194.021 139.592 193.787 138.425C193.437 143.908 191.921 153.475 189.237 167.125C186.554 180.775 183.462 195.067 179.962 210C176.462 225.05 173.429 237.183 170.862 246.4ZM169.462 235.2C173.196 222.95 177.862 203.875 183.462 177.975C188.596 154.408 191.162 138.542 191.162 130.375L190.987 127.75C190.287 134.4 188.654 144.317 186.087 157.5C183.637 170.567 180.896 184.217 177.862 198.45C174.829 212.683 172.029 224.933 169.462 235.2ZM204.287 86.975C205.687 86.975 206.854 86.45 207.787 85.4C208.837 84.2333 209.479 83.0083 209.712 81.725C210.062 80.4417 210.237 79.3917 210.237 78.575C210.237 75.6583 209.129 73.675 206.912 72.625C208.429 74.2583 209.187 75.7167 209.187 77C209.304 78.1667 209.362 78.925 209.362 79.275C209.362 81.025 208.896 82.6583 207.962 84.175C207.146 85.6917 205.804 86.625 203.937 86.975H204.287ZM245.184 187.775C245.884 187.775 246.701 187.542 247.634 187.075C249.734 186.142 252.942 182.467 257.259 176.05L260.234 171.5C264.784 164.967 268.109 157.442 270.209 148.925L268.109 148.4C262.392 146.767 257.959 143.792 254.809 139.475C254.342 138.542 253.876 138.075 253.409 138.075C252.942 138.075 252.651 138.542 252.534 139.475C252.534 140.408 252.242 141.167 251.659 141.75C251.192 142.683 250.901 143.617 250.784 144.55C250.784 145.367 250.317 146.767 249.384 148.75C249.034 149.45 248.801 150.15 248.684 150.85L245.709 159.6C245.126 161.467 244.717 163.158 244.484 164.675L243.434 168.175C242.384 172.258 241.859 176.167 241.859 179.9C241.859 180.483 241.859 181.475 241.859 182.875C241.859 184.275 242.326 185.558 243.259 186.725C243.726 187.425 244.367 187.775 245.184 187.775ZM270.909 144.55C271.026 142.567 271.201 140.525 271.434 138.425C271.667 136.325 271.784 134.4 271.784 132.65L271.434 129.85C270.501 120.05 267.759 114.975 263.209 114.625C260.992 114.625 259.884 116.025 259.884 118.825C259.884 119.758 259.709 120.633 259.359 121.45C258.892 121.917 258.484 122.85 258.134 124.25C258.017 124.833 257.842 125.417 257.609 126C257.376 126.583 257.201 127.05 257.084 127.4C256.967 127.75 256.792 128.158 256.559 128.625C256.442 128.975 256.384 129.267 256.384 129.5C256.384 131.833 257.901 135.042 260.934 139.125C262.684 141.225 264.259 142.625 265.659 143.325C266.359 143.558 267.059 143.85 267.759 144.2C268.576 144.433 269.626 144.55 270.909 144.55ZM244.484 193.025C242.851 193.025 240.342 192.15 236.959 190.4C233.109 188.533 230.309 186.258 228.559 183.575C227.159 181.592 225.992 178.617 225.059 174.65C223.542 168.817 222.784 164.383 222.784 161.35C222.784 159.483 223.717 153.417 225.584 143.15C226.051 140.35 226.517 138.717 226.984 138.25C227.451 137.783 227.801 136.792 228.034 135.275C228.267 133.642 228.617 132.592 229.084 132.125C229.551 131.542 229.784 131.075 229.784 130.725C229.784 130.258 229.959 129.792 230.309 129.325C231.709 126.992 232.467 125.475 232.584 124.775C232.817 123.958 233.167 123.317 233.634 122.85C234.217 122.267 234.626 121.508 234.859 120.575C235.209 120.108 235.559 119.583 235.909 119C236.376 118.3 236.842 117.717 237.309 117.25C238.359 116.433 238.884 115.792 238.884 115.325C238.884 114.742 239.234 114.1 239.934 113.4C243.084 110.25 245.301 108.442 246.584 107.975C247.867 107.392 249.559 107.1 251.659 107.1C254.459 107.1 256.851 107.975 258.834 109.725C259.534 110.425 260.701 110.892 262.334 111.125C263.967 111.358 265.717 112.058 267.584 113.225C272.951 116.725 275.634 123.958 275.634 134.925L275.459 141.05L275.284 143.5C275.284 143.85 275.284 144.317 275.284 144.9C275.401 145.483 276.159 145.775 277.559 145.775C278.142 145.775 278.901 145.658 279.834 145.425C288.117 144.492 295.584 141.517 302.234 136.5C303.051 135.917 303.809 135.625 304.509 135.625C305.326 135.625 305.734 135.858 305.734 136.325C305.734 136.792 305.501 137.375 305.034 138.075C301.651 141.225 297.276 143.85 291.909 145.95C287.242 147.817 282.401 148.808 277.384 148.925L274.234 149.275L272.309 155.75C269.509 166.483 264.901 175.933 258.484 184.1L256.559 186.375C254.692 188.592 252.476 190.283 249.909 191.45C247.692 192.5 245.884 193.025 244.484 193.025ZM230.134 169.225C230.601 154.875 233.401 142.567 238.534 132.3C239.817 129.967 243.784 123.2 250.434 112C246.234 116.317 242.501 121.45 239.234 127.4C233.051 138.833 229.959 151.083 229.959 164.15L230.134 169.225ZM235.909 180.425C235.442 176.108 235.209 172.083 235.209 168.35C235.209 159.25 236.609 150.85 239.409 143.15C240.342 140.7 243.434 133.408 248.684 121.275C245.067 126.175 242.034 131.775 239.584 138.075C236.084 146.708 234.334 155.75 234.334 165.2C234.334 170.217 234.859 175.292 235.909 180.425ZM317.767 189.7C319.167 189.7 320.858 188.883 322.842 187.25C325.175 185.267 326.4 184.042 326.517 183.575C329.083 180.775 331.417 177.158 333.517 172.725C336.317 167.242 338.242 162.225 339.292 157.675L341.917 150.5C345.533 140.583 347.575 131.95 348.042 124.6C348.042 123.083 347.75 121.45 347.167 119.7C345.883 115.15 343.725 112.758 340.692 112.525C338.125 112.525 335.5 115.5 332.817 121.45C332.583 121.917 332.35 122.325 332.117 122.675C332 122.908 331.883 123.258 331.767 123.725C330.95 126.058 329.958 128.392 328.792 130.725C327.742 133.058 327.217 134.4 327.217 134.75C327.217 135.8 326.4 137.55 324.767 140C324.3 140.817 323.95 141.867 323.717 143.15C323.483 144.317 323.133 145.25 322.667 145.95C322.2 146.65 321.792 147.525 321.442 148.575C320.392 151.142 319.867 152.775 319.867 153.475C319.867 154.058 319.575 154.525 318.992 154.875C318.992 155.225 318.875 155.692 318.642 156.275C318.408 156.742 318.233 157.267 318.117 157.85C318.117 158.317 317.942 159.25 317.592 160.65C316.775 161.933 316.308 163.975 316.192 166.775C316.192 167.825 316.017 168.7 315.667 169.4C315.2 170.8 314.967 174.417 314.967 180.25C314.967 186.55 315.9 189.7 317.767 189.7ZM309.542 180.075L309.367 175.875C309.367 163.625 311.467 152.775 315.667 143.325C316.6 141.108 320.1 134.225 326.167 122.675C314.617 135.625 308.842 151.433 308.842 170.1C308.842 173.367 309.075 176.692 309.542 180.075ZM303.767 168.7C305.167 154.35 308.783 142.45 314.617 133C315.9 130.783 320.275 124.425 327.742 113.925C320.742 119.992 315.083 127.692 310.767 137.025C306.1 146.942 303.767 157.5 303.767 168.7ZM364.667 134.575C370.267 109.258 378.317 87.15 388.817 68.25C376.217 86.45 368.225 107.683 364.842 131.95L364.667 134.575ZM358.192 159.775C359.008 134.458 364.025 111.242 373.242 90.125C362.858 107.508 357.667 126.642 357.667 147.525C357.667 151.492 357.842 155.575 358.192 159.775ZM383.742 103.25C384.325 103.25 387.417 101.267 393.017 97.3C405.617 87.3833 414.658 76.8833 420.142 65.8C422.942 59.9667 424.342 55.825 424.342 53.375C424.342 52.2083 424.108 50.6917 423.642 48.825C423.175 46.9583 422.65 45.9667 422.067 45.85C419.267 45.85 416 47.8333 412.267 51.8C408.533 55.65 406.608 57.9833 406.492 58.8C406.375 59.6167 406.025 60.1417 405.442 60.375C402.758 64.225 401.358 66.7333 401.242 67.9C401.125 68.25 400.775 68.5417 400.192 68.775C399.608 69.0083 399.258 69.5917 399.142 70.525C398.558 72.275 397.858 73.675 397.042 74.725C396.692 75.075 395.992 76.4167 394.942 78.75C392.725 82.8333 391.325 85.8083 390.742 87.675C390.625 88.4917 390.392 89.1917 390.042 89.775C389.692 90.2417 389.283 91.0583 388.817 92.225C387.183 95.842 386.308 97.883 386.192 98.35C386.192 98.817 386.017 99.108 385.667 99.225C385.433 99.342 385.258 99.75 385.142 100.45C385.025 101.15 384.733 101.675 384.267 102.025C383.917 102.375 383.742 102.725 383.742 103.075V103.25ZM348.217 148.225L342.442 165.55C335.792 184.917 328.092 194.717 319.342 194.95C317.825 194.95 316.308 194.717 314.792 194.25C304.875 190.867 299.45 183.283 298.517 171.5C298.517 170.45 298.342 168.875 297.992 166.775C297.642 165.492 297.467 162.983 297.467 159.25C297.467 155.633 297.642 153.417 297.992 152.6C298.225 151.667 298.342 150.558 298.342 149.275C298.342 147.408 298.925 145.192 300.092 142.625C300.558 141.925 300.792 141.167 300.792 140.35C300.792 139.533 301.492 137.667 302.892 134.75C304.408 131.833 305.167 130.317 305.167 130.2C305.167 129.967 305.283 129.675 305.517 129.325C307.15 127.692 308.142 126.35 308.492 125.3C309.308 123.317 310.358 121.742 311.642 120.575C312.225 119.875 312.633 119.292 312.867 118.825C314.5 116.725 317.942 113.75 323.192 109.9C326.925 107.217 331.533 105.875 337.017 105.875C339.467 105.875 341.8 106.283 344.017 107.1C347.75 108.617 350.375 110.483 351.892 112.7L352.242 113.225L352.942 115.85L356.792 104.3C357.025 104.767 357.258 105 357.492 105C357.608 105 357.842 104.65 358.192 103.95C358.892 102.433 359.417 100.975 359.767 99.575C360 98.758 360.233 98.175 360.467 97.825L361.517 94.325C361.75 93.1583 362.042 92.3417 362.392 91.875C362.742 91.4083 363.15 90.7083 363.617 89.775C363.733 89.075 364.433 87.675 365.717 85.575C367.933 81.1417 369.1 78.6333 369.217 78.05C369.333 77.35 370.15 75.95 371.667 73.85C373.183 71.6333 374.292 69.825 374.992 68.425C376.275 66.4417 377.792 64.4 379.542 62.3C380.008 61.7167 380.242 61.25 380.242 60.9C382.342 57.9833 384.15 55.8833 385.667 54.6H385.842C386.192 54.6 386.367 54.4833 386.367 54.25C386.483 53.9 386.775 53.4333 387.242 52.85L389.867 51.275C390.217 51.275 390.508 50.9833 390.742 50.4C391.092 49.8167 391.675 49.1167 392.492 48.3C397.275 44.9167 400.017 43.1667 400.717 43.05C401.417 42.8167 402.175 42.4083 402.992 41.825C403.342 41.5917 403.983 41.3 404.917 40.95C408.417 39.7833 411.508 39.2 414.192 39.2C418.858 39.2 422.767 40.7167 425.917 43.75C428.6 46.0833 429.942 49.2333 429.942 53.2C429.942 56.5833 428.542 61.3083 425.742 67.375C421.542 75.775 415.592 83.825 407.892 91.525C403.225 96.192 396.167 101.733 386.717 108.15C382.4 111.067 380.183 112.992 380.067 113.925C380.067 114.858 379.658 116.142 378.842 117.775C378.025 119.408 377.442 121.217 377.092 123.2C376.858 125.183 376.45 126.7 375.867 127.75C375.4 128.8 375.108 129.908 374.992 131.075C374.875 132.125 374.467 133.175 373.767 134.225C373.183 135.158 372.775 136.617 372.542 138.6C372.192 141.167 371.55 144.025 370.617 147.175C369.683 150.208 368.983 154.817 368.517 161C367.817 165.2 367.467 168.817 367.467 171.85C367.467 175.467 368.225 179.958 369.742 185.325C370.675 188.125 372.192 189.7 374.292 190.05C375.575 190.05 376.508 189.933 377.092 189.7C381.875 187.483 386.775 183.05 391.792 176.4C396.692 170.217 400.425 164.792 402.992 160.125L406.667 153.825L409.467 148.4C412.617 143.15 414.308 140.117 414.542 139.3C416.175 136.733 417.283 135.45 417.867 135.45C419.033 135.683 419.617 136.15 419.617 136.85V137.025C419.5 137.958 418.917 139.417 417.867 141.4C416.117 144.433 414.425 147.992 412.792 152.075C404.975 167.708 397.1 179.9 389.167 188.65C383.8 193.083 378.9 195.417 374.467 195.65C366.3 194.833 359.767 189.642 354.867 180.075C352.883 177.042 351.133 172.025 349.617 165.025L349.267 146.65V144.55L348.217 148.225ZM431.634 187.775C432.334 187.775 433.151 187.542 434.084 187.075C436.184 186.142 439.393 182.467 443.709 176.05L446.684 171.5C451.234 164.967 454.559 157.442 456.659 148.925L454.559 148.4C448.843 146.767 444.409 143.792 441.259 139.475C440.793 138.542 440.326 138.075 439.859 138.075C439.393 138.075 439.101 138.542 438.984 139.475C438.984 140.408 438.693 141.167 438.109 141.75C437.643 142.683 437.351 143.617 437.234 144.55C437.234 145.367 436.768 146.767 435.834 148.75C435.484 149.45 435.251 150.15 435.134 150.85L432.159 159.6C431.576 161.467 431.168 163.158 430.934 164.675L429.884 168.175C428.834 172.258 428.309 176.167 428.309 179.9C428.309 180.483 428.309 181.475 428.309 182.875C428.309 184.275 428.776 185.558 429.709 186.725C430.176 187.425 430.818 187.775 431.634 187.775ZM457.359 144.55C457.476 142.567 457.651 140.525 457.884 138.425C458.118 136.325 458.234 134.4 458.234 132.65L457.884 129.85C456.951 120.05 454.209 114.975 449.659 114.625C447.443 114.625 446.334 116.025 446.334 118.825C446.334 119.758 446.159 120.633 445.809 121.45C445.343 121.917 444.934 122.85 444.584 124.25C444.468 124.833 444.293 125.417 444.059 126C443.826 126.583 443.651 127.05 443.534 127.4C443.418 127.75 443.243 128.158 443.009 128.625C442.893 128.975 442.834 129.267 442.834 129.5C442.834 131.833 444.351 135.042 447.384 139.125C449.134 141.225 450.709 142.625 452.109 143.325C452.809 143.558 453.509 143.85 454.209 144.2C455.026 144.433 456.076 144.55 457.359 144.55ZM430.934 193.025C429.301 193.025 426.793 192.15 423.409 190.4C419.559 188.533 416.759 186.258 415.009 183.575C413.609 181.592 412.443 178.617 411.509 174.65C409.993 168.817 409.234 164.383 409.234 161.35C409.234 159.483 410.168 153.417 412.034 143.15C412.501 140.35 412.968 138.717 413.434 138.25C413.901 137.783 414.251 136.792 414.484 135.275C414.718 133.642 415.068 132.592 415.534 132.125C416.001 131.542 416.234 131.075 416.234 130.725C416.234 130.258 416.409 129.792 416.759 129.325C418.159 126.992 418.918 125.475 419.034 124.775C419.268 123.958 419.618 123.317 420.084 122.85C420.668 122.267 421.076 121.508 421.309 120.575C421.659 120.108 422.009 119.583 422.359 119C422.826 118.3 423.293 117.717 423.759 117.25C424.809 116.433 425.334 115.792 425.334 115.325C425.334 114.742 425.684 114.1 426.384 113.4C429.534 110.25 431.751 108.442 433.034 107.975C434.318 107.392 436.009 107.1 438.109 107.1C440.909 107.1 443.301 107.975 445.284 109.725C445.984 110.425 447.151 110.892 448.784 111.125C450.418 111.358 452.168 112.058 454.034 113.225C459.401 116.725 462.084 123.958 462.084 134.925L461.909 141.05L461.734 143.5C461.734 143.85 461.734 144.317 461.734 144.9C461.851 145.483 462.609 145.775 464.009 145.775C464.593 145.775 465.351 145.658 466.284 145.425C474.568 144.492 482.034 141.517 488.684 136.5C489.501 135.917 490.259 135.625 490.959 135.625C491.776 135.625 492.184 135.858 492.184 136.325C492.184 136.792 491.951 137.375 491.484 138.075C488.101 141.225 483.726 143.85 478.359 145.95C473.693 147.817 468.851 148.808 463.834 148.925L460.684 149.275L458.759 155.75C455.959 166.483 451.351 175.933 444.934 184.1L443.009 186.375C441.143 188.592 438.926 190.283 436.359 191.45C434.143 192.5 432.334 193.025 430.934 193.025ZM416.584 169.225C417.051 154.875 419.851 142.567 424.984 132.3C426.268 129.967 430.234 123.2 436.884 112C432.684 116.317 428.951 121.45 425.684 127.4C419.501 138.833 416.409 151.083 416.409 164.15L416.584 169.225ZM422.359 180.425C421.893 176.108 421.659 172.083 421.659 168.35C421.659 159.25 423.059 150.85 425.859 143.15C426.793 140.7 429.884 133.408 435.134 121.275C431.518 126.175 428.484 131.775 426.034 138.075C422.534 146.708 420.784 155.75 420.784 165.2C420.784 170.217 421.309 175.292 422.359 180.425ZM518.042 121.275C518.159 121.275 518.859 120.692 520.142 119.525C524.225 115.908 528.425 111.592 532.742 106.575C542.659 95.258 550.475 83.5917 556.192 71.575C560.742 61.775 563.017 53.9583 563.017 48.125C563.017 46.6083 562.842 45.0333 562.492 43.4C562.142 41.65 561.559 40.1333 560.742 38.85C559.925 37.5667 558.992 36.925 557.942 36.925C557.475 36.925 556.484 37.5083 554.967 38.675C552.284 40.6583 549.95 42.9917 547.967 45.675C545.984 48.3583 544.992 49.9333 544.992 50.4C544.992 50.75 544.525 51.45 543.592 52.5C542.775 53.4333 542.367 54.075 542.367 54.425C542.367 54.775 542.25 55.0083 542.017 55.125C540.5 56.6417 539.567 58.45 539.217 60.55C538.867 61.7167 538.459 62.7083 537.992 63.525C537.175 64.925 536.534 66.325 536.067 67.725L534.317 71.4C533.734 71.9833 533.442 72.625 533.442 73.325C533.442 74.025 533.209 74.6083 532.742 75.075C532.275 75.5417 532.042 76.0667 532.042 76.65C532.042 77.2333 531.692 78.1083 530.992 79.275C529.942 81.1417 529.242 83.7083 528.892 86.975C528.542 87.9083 528.192 88.6667 527.842 89.25C526.792 90.8833 526.034 92.9833 525.567 95.55C525.334 96.833 524.925 97.942 524.342 98.875C523.759 99.692 523.467 100.508 523.467 101.325C523.467 102.142 523.175 103.192 522.592 104.475C522.009 105.758 521.717 106.692 521.717 107.275C521.717 107.742 521.6 108.442 521.367 109.375C520.434 112.058 519.734 113.75 519.267 114.45C518.334 116.9 517.867 119.058 517.867 120.925L518.042 121.275ZM551.992 198.975C548.492 198.975 545.925 198.567 544.292 197.75C539.275 196.35 535.484 193.842 532.917 190.225C532.685 189.525 532.159 188.767 531.342 187.95C528.542 184.917 527.142 178.908 527.142 169.925L527.667 165.375C528.134 159.542 528.834 155.283 529.767 152.6C530.817 149.917 532.042 145.425 533.442 139.125C534.375 135.858 534.959 133.058 535.192 130.725C535.192 130.025 535.075 129.675 534.842 129.675C534.259 129.675 533.034 130.492 531.167 132.125C525.334 137.142 520.2 143.442 515.767 151.025C510.517 159.775 506.2 168.408 502.817 176.925C500.6 182.408 499.259 186.55 498.792 189.35C498.092 192.733 497.509 194.775 497.042 195.475C496.575 196.175 495.467 196.525 493.717 196.525C490.45 196.525 487.884 195.708 486.017 194.075C484.617 189.292 483.917 183.867 483.917 177.8C483.917 175.467 484.034 173.075 484.267 170.625C485.55 162.458 486.367 154.467 486.717 146.65C486.834 142.683 487.125 140.35 487.592 139.65C487.942 138.95 488.117 137.842 488.117 136.325C488.117 134.692 488.234 133.7 488.467 133.35C488.7 133 488.934 131.95 489.167 130.2C489.517 128.45 490.159 125.417 491.092 121.1C492.142 115.733 493.017 112.467 493.717 111.3C493.95 110.833 494.067 110.308 494.067 109.725C494.067 109.025 494.3 108.325 494.767 107.625C495.35 106.458 496.4 103.542 497.917 98.875C498.15 97.942 498.325 97.3 498.442 96.95C499.025 96.133 499.492 95.083 499.842 93.8C500.192 92.4 500.6 91.2333 501.067 90.3C503.867 84.7 505.267 81.55 505.267 80.85C505.267 80.0333 505.909 78.8083 507.192 77.175C507.309 76.9417 507.367 76.7667 507.367 76.65C507.367 76.4167 507.717 75.775 508.417 74.725C510.05 72.1583 511.042 70.4667 511.392 69.65C512.792 67.0833 515.009 63.8167 518.042 59.85C519.443 58.45 520.842 55.825 522.242 51.975C523.409 50.8083 524.167 49.875 524.517 49.175C525.45 48.0083 527.025 46.375 529.242 44.275C531.459 42.175 532.567 40.95 532.567 40.6C532.567 40.25 535.95 38.325 542.717 34.825C546.567 32.8417 550.417 31.85 554.267 31.85C557.067 31.85 559.809 32.4917 562.492 33.775C564.592 34.825 566.109 36.3417 567.042 38.325C568.092 40.3083 568.617 43.4 568.617 47.6L568.442 50.575C564.125 67.6083 556.017 83.7083 544.117 98.875C535.017 110.425 526.85 119.408 519.617 125.825C516.934 128.042 515.417 129.617 515.067 130.55C514.134 134.283 513.492 136.5 513.142 137.2C512.909 137.783 512.442 139.417 511.742 142.1C511.042 144.667 510.692 146.125 510.692 146.475C511.042 146.475 511.45 146.008 511.917 145.075C513.784 142.158 516.234 138.892 519.267 135.275C525.217 128.158 529.942 124.017 533.442 122.85C534.259 122.617 535.775 122.5 537.992 122.5C543.242 122.5 547.15 124.075 549.717 127.225C551.584 129.558 552.517 130.958 552.517 131.425C552.517 131.892 552.693 132.65 553.042 133.7C553.159 134.05 553.217 135.158 553.217 137.025V140.525C552.984 144.842 552.867 147.583 552.867 148.75C552.634 152.483 552.225 154.933 551.642 156.1C550.942 160.533 550.417 164.442 550.067 167.825C549.834 169.925 549.6 171.092 549.367 171.325C548.784 172.142 548.492 175.758 548.492 182.175C548.492 183.575 548.725 185.208 549.192 187.075C550.359 191.275 552.167 193.375 554.617 193.375C558.817 193.375 563.892 188.708 569.842 179.375C572.759 174.825 575.209 169.458 577.192 163.275C578.009 161.875 578.417 160.942 578.417 160.475C578.417 160.008 578.534 159.775 578.767 159.775C579.117 159.425 580.4 156.158 582.617 149.975C584.134 145.425 585.359 141.575 586.292 138.425C586.642 136.558 587.284 135.625 588.217 135.625C589.617 135.625 590.317 136.267 590.317 137.55C590.317 139.3 588.509 145.367 584.892 155.75C579.875 170.567 576.259 179.55 574.042 182.7C568.092 191.8 562.375 197.05 556.892 198.45C555.259 198.8 553.625 198.975 551.992 198.975ZM491.967 169.05C493.6 157.5 496.05 145.6 499.317 133.35C502.7 120.983 506.259 109.492 509.992 98.875C513.842 88.2583 517.4 79.6833 520.667 73.15C515.068 80.5 509.117 94.85 502.817 116.2C496.75 137.083 493.134 154.7 491.967 169.05ZM497.917 157.675C500.484 145.192 503.925 132.417 508.242 119.35C512.675 106.167 517.284 93.917 522.067 82.6C526.85 71.2833 531.109 62.2417 534.842 55.475C528.659 63.0583 521.542 78.2833 513.492 101.15C505.559 123.433 500.367 142.275 497.917 157.675ZM536.417 183.05C535.717 180.367 535.367 177.683 535.367 175C535.367 170.333 536.475 163.858 538.692 155.575C540.675 148.808 541.667 143.558 541.667 139.825C541.667 137.492 541.375 135.333 540.792 133.35C540.909 134.517 540.967 135.742 540.967 137.025C540.967 140.758 539.975 146.067 537.992 152.95C535.775 161.233 534.667 167.767 534.667 172.55C534.667 175.933 535.25 179.433 536.417 183.05ZM541.492 187.25C540.792 184.217 540.442 181.125 540.442 177.975C540.442 172.725 541.435 165.433 543.417 156.1C545.167 148.983 546.042 143.383 546.042 139.3C546.042 135.8 545.517 132.65 544.467 129.85C544.817 131.95 544.992 134.167 544.992 136.5C544.992 140.583 544.117 146.592 542.367 154.525C540.267 163.625 539.217 170.567 539.217 175.35C539.217 179.667 539.975 183.633 541.492 187.25ZM598.312 226.625C595.629 226.625 593.471 225.867 591.837 224.35C590.204 222.833 589.387 220.967 589.387 218.75C589.387 217.233 589.797 215.833 590.612 214.55C591.547 213.383 592.362 212.567 593.062 212.1C593.879 211.75 595.046 211.575 596.562 211.575C598.896 211.575 600.587 212.1 601.637 213.15C602.804 214.317 603.505 216.767 603.737 220.5V221.375C603.737 221.958 603.562 222.658 603.212 223.475C602.162 225.575 600.529 226.625 598.312 226.625ZM601.287 222.25C601.637 220.967 601.812 219.8 601.812 218.75C601.812 215.25 600.121 213.092 596.737 212.275C599.771 214.025 601.287 217.35 601.287 222.25ZM630.695 199.15H628.945C625.562 199.15 622.004 198.158 618.27 196.175C613.487 193.725 609.345 189.817 605.845 184.45C603.629 181.183 602.52 178.967 602.52 177.8C602.52 176.633 602.404 175.933 602.17 175.7C601.938 175.467 601.762 175.058 601.645 174.475C601.529 173.775 601.237 172.492 600.77 170.625C600.304 168.642 600.07 166.192 600.07 163.275C600.07 161.408 600.129 159.367 600.245 157.15C600.245 154.817 601.004 151.492 602.52 147.175C602.87 146.125 603.045 145.367 603.045 144.9C603.395 142.333 603.862 140.7 604.445 140C604.562 139.65 604.737 139.3 604.97 138.95C605.087 138.483 605.263 138.017 605.495 137.55C605.612 137.083 605.845 136.558 606.195 135.975C606.429 135.275 606.779 134.692 607.245 134.225C607.595 133.642 608.12 132.65 608.82 131.25C608.82 130.9 608.938 130.55 609.17 130.2C610.104 128.8 610.57 127.925 610.57 127.575C610.57 127.108 612.379 124.483 615.995 119.7C617.513 118.183 618.27 117.25 618.27 116.9C618.27 116.433 620.37 114.392 624.57 110.775L628.42 108.15C629.704 107.333 630.987 106.692 632.27 106.225C635.77 104.942 638.745 104.3 641.195 104.3C646.912 104.3 651.404 106.05 654.67 109.55C657.47 112.35 658.87 116.667 658.87 122.5C658.87 127.05 658.287 129.325 657.12 129.325C655.021 129.092 653.97 128.45 653.97 127.4C654.204 126.817 654.32 124.542 654.32 120.575C654.32 119.175 653.97 117.833 653.27 116.55C651.17 112.583 649.595 110.6 648.545 110.6C646.445 110.6 643.995 112.758 641.195 117.075C639.562 119.525 638.745 120.867 638.745 121.1C638.745 121.333 638.512 121.625 638.045 121.975C637.695 122.208 637.52 122.5 637.52 122.85C637.52 123.083 637.229 123.608 636.645 124.425C636.062 125.125 635.712 125.883 635.595 126.7L635.07 127.925C631.92 132.942 629.237 138.192 627.02 143.675C625.387 146.825 624.57 148.808 624.57 149.625C624.57 150.442 624.045 152.425 622.995 155.575C622.763 156.275 622.645 156.8 622.645 157.15C622.645 157.5 622.412 158.083 621.945 158.9C621.479 159.717 621.187 160.825 621.07 162.225C620.954 163.625 620.72 164.85 620.37 165.9C619.204 169.167 618.62 173.542 618.62 179.025C618.62 182.525 619.029 185.208 619.845 187.075C621.829 191.742 624.395 194.075 627.545 194.075C633.379 194.075 640.67 189.058 649.42 179.025L655.545 172.025C659.395 167.358 664.179 160.942 669.895 152.775C670.129 152.308 672.52 148.867 677.07 142.45C679.987 138.017 681.854 135.8 682.67 135.8C683.954 136.15 684.595 136.733 684.595 137.55C684.595 138.133 681.212 143.5 674.445 153.65C668.029 163.8 663.012 171.208 659.395 175.875C652.162 185.558 646.737 191.742 643.12 194.425C639.037 197.575 634.895 199.15 630.695 199.15ZM605.32 168.875C606.02 160.708 607.304 153.825 609.17 148.225C611.037 142.508 613.312 137.492 615.995 133.175C618.68 128.858 621.537 124.658 624.57 120.575C626.087 118.475 627.662 116.258 629.295 113.925C624.745 117.892 620.662 122.675 617.045 128.275C613.429 133.875 610.57 140.117 608.47 147C606.37 153.767 605.32 161.058 605.32 168.875ZM610.92 180.25V175.875C610.92 169.575 611.387 163.8 612.32 158.55C613.37 153.183 614.888 148.225 616.87 143.675C618.97 139.125 621.187 134.633 623.52 130.2C624.92 127.867 626.262 125.417 627.545 122.85C623.579 127.283 620.195 132.475 617.395 138.425C612.729 148.108 610.395 158.667 610.395 170.1C610.395 173.483 610.57 176.867 610.92 180.25ZM697.381 187.775C698.081 187.775 698.898 187.542 699.831 187.075C701.931 186.142 705.141 182.467 709.456 176.05L712.431 171.5C716.981 164.967 720.306 157.442 722.406 148.925L720.306 148.4C714.59 146.767 710.156 143.792 707.006 139.475C706.54 138.542 706.073 138.075 705.606 138.075C705.14 138.075 704.848 138.542 704.731 139.475C704.731 140.408 704.44 141.167 703.856 141.75C703.39 142.683 703.098 143.617 702.981 144.55C702.981 145.367 702.516 146.767 701.581 148.75C701.232 149.45 700.998 150.15 700.881 150.85L697.906 159.6C697.323 161.467 696.915 163.158 696.681 164.675L695.631 168.175C694.581 172.258 694.056 176.167 694.056 179.9C694.056 180.483 694.056 181.475 694.056 182.875C694.056 184.275 694.523 185.558 695.456 186.725C695.923 187.425 696.565 187.775 697.381 187.775ZM723.106 144.55C723.223 142.567 723.398 140.525 723.631 138.425C723.865 136.325 723.981 134.4 723.981 132.65L723.631 129.85C722.698 120.05 719.956 114.975 715.406 114.625C713.19 114.625 712.081 116.025 712.081 118.825C712.081 119.758 711.906 120.633 711.556 121.45C711.09 121.917 710.681 122.85 710.331 124.25C710.215 124.833 710.04 125.417 709.806 126C709.573 126.583 709.398 127.05 709.281 127.4C709.165 127.75 708.99 128.158 708.756 128.625C708.64 128.975 708.581 129.267 708.581 129.5C708.581 131.833 710.098 135.042 713.131 139.125C714.881 141.225 716.456 142.625 717.856 143.325C718.556 143.558 719.256 143.85 719.956 144.2C720.773 144.433 721.823 144.55 723.106 144.55ZM696.681 193.025C695.048 193.025 692.54 192.15 689.156 190.4C685.306 188.533 682.506 186.258 680.756 183.575C679.356 181.592 678.19 178.617 677.256 174.65C675.74 168.817 674.981 164.383 674.981 161.35C674.981 159.483 675.915 153.417 677.781 143.15C678.248 140.35 678.715 138.717 679.181 138.25C679.648 137.783 679.998 136.792 680.231 135.275C680.465 133.642 680.815 132.592 681.281 132.125C681.748 131.542 681.981 131.075 681.981 130.725C681.981 130.258 682.156 129.792 682.506 129.325C683.906 126.992 684.665 125.475 684.781 124.775C685.015 123.958 685.365 123.317 685.831 122.85C686.415 122.267 686.823 121.508 687.056 120.575C687.406 120.108 687.756 119.583 688.106 119C688.573 118.3 689.04 117.717 689.506 117.25C690.556 116.433 691.081 115.792 691.081 115.325C691.081 114.742 691.431 114.1 692.131 113.4C695.281 110.25 697.498 108.442 698.781 107.975C700.065 107.392 701.756 107.1 703.856 107.1C706.656 107.1 709.048 107.975 711.031 109.725C711.731 110.425 712.898 110.892 714.531 111.125C716.165 111.358 717.915 112.058 719.781 113.225C725.148 116.725 727.831 123.958 727.831 134.925L727.656 141.05L727.481 143.5C727.481 143.85 727.481 144.317 727.481 144.9C727.598 145.483 728.356 145.775 729.756 145.775C730.34 145.775 731.098 145.658 732.031 145.425C740.315 144.492 747.781 141.517 754.431 136.5C755.248 135.917 756.006 135.625 756.706 135.625C757.523 135.625 757.931 135.858 757.931 136.325C757.931 136.792 757.698 137.375 757.231 138.075C753.848 141.225 749.473 143.85 744.106 145.95C739.44 147.817 734.599 148.808 729.581 148.925L726.431 149.275L724.506 155.75C721.706 166.483 717.098 175.933 710.681 184.1L708.756 186.375C706.89 188.592 704.673 190.283 702.106 191.45C699.89 192.5 698.081 193.025 696.681 193.025ZM682.331 169.225C682.798 154.875 685.598 142.567 690.731 132.3C692.015 129.967 695.981 123.2 702.631 112C698.431 116.317 694.698 121.45 691.431 127.4C685.248 138.833 682.156 151.083 682.156 164.15L682.331 169.225ZM688.106 180.425C687.64 176.108 687.406 172.083 687.406 168.35C687.406 159.25 688.806 150.85 691.606 143.15C692.54 140.7 695.631 133.408 700.881 121.275C697.265 126.175 694.231 131.775 691.781 138.075C688.281 146.708 686.531 155.75 686.531 165.2C686.531 170.217 687.056 175.292 688.106 180.425ZM846.964 194.075H845.564C842.181 194.075 838.681 192.325 835.064 188.825C832.031 186.142 830.514 183.983 830.514 182.35C829.581 180.717 828.881 178.442 828.414 175.525C828.065 172.608 827.772 170.917 827.539 170.45C827.539 161.7 827.656 157.267 827.889 157.15C828.239 157.033 828.414 156.333 828.414 155.05C828.414 154.35 828.531 153.708 828.764 153.125C829.114 152.425 829.406 151.317 829.639 149.8C830.572 145.483 831.506 142.042 832.439 139.475C833.839 133.642 834.831 130.142 835.414 128.975C835.997 127.692 836.347 126.058 836.464 124.075C836.464 123.842 836.289 123.725 835.939 123.725C829.872 125.358 823.573 131.483 817.039 142.1C814.122 146.183 812.664 149.8 812.664 152.95L811.964 155.75C811.381 158.55 810.681 160.592 809.864 161.875C809.631 162.925 809.339 163.625 808.989 163.975C808.872 165.142 808.172 166.833 806.889 169.05C804.089 173.717 801.522 176.05 799.189 176.05C793.706 175.467 790.847 173.25 790.614 169.4L790.439 165.375C790.439 163.742 790.557 162.633 790.789 162.05C791.139 161 791.372 159.192 791.489 156.625C791.606 156.042 791.781 155.692 792.014 155.575C792.714 153.592 793.122 151.842 793.239 150.325C793.239 149.858 793.357 149.333 793.589 148.75C793.939 148.167 794.114 147.758 794.114 147.525V147.35C794.114 147.117 794.581 145.425 795.514 142.275C796.797 139.592 797.557 137.492 797.789 135.975C798.022 134.342 798.315 133.233 798.664 132.65C799.131 132.067 799.482 131.25 799.714 130.2C799.947 129.15 800.297 128.158 800.764 127.225C801.231 126.292 801.581 124.892 801.814 123.025C802.164 121.042 803.097 118.183 804.614 114.45C805.197 112.817 805.664 110.308 806.014 106.925C803.447 108.675 801.406 110.25 799.889 111.65C791.839 119 784.372 129.092 777.489 141.925C773.522 149.508 771.539 153.417 771.539 153.65C771.539 153.767 771.306 154.233 770.839 155.05C770.372 155.867 769.847 157.033 769.264 158.55C769.147 158.667 769.089 158.783 769.089 158.9C769.089 159.017 768.681 160.242 767.864 162.575C767.164 164.092 766.522 165.958 765.939 168.175C765.589 169.225 765.297 169.867 765.064 170.1C764.481 170.917 763.956 172.083 763.489 173.6C763.022 175 762.556 175.933 762.089 176.4C761.74 176.867 760.865 178.617 759.464 181.65C758.764 183.05 757.597 183.75 755.964 183.75C754.331 183.75 752.756 183.342 751.239 182.525C749.606 181.825 748.497 180.95 747.914 179.9C747.214 178.033 746.864 175.583 746.864 172.55C746.864 171.383 746.922 170.217 747.039 169.05C747.156 167.767 747.214 166.717 747.214 165.9C747.797 158.55 748.672 153.358 749.839 150.325C750.306 149.508 750.539 148.633 750.539 147.7C750.539 146.067 751.006 144.608 751.939 143.325C752.056 143.208 752.289 142.625 752.639 141.575C752.639 140.525 752.815 139.708 753.164 139.125C753.397 138.542 754.331 136.092 755.964 131.775C756.431 131.192 756.664 130.608 756.664 130.025C756.664 129.442 757.247 127.925 758.414 125.475C758.647 125.008 758.764 124.6 758.764 124.25C758.764 123.9 759.172 123.2 759.989 122.15L761.214 119.35C761.214 118.067 762.323 116.725 764.539 115.325C765.589 114.625 766.931 114.275 768.564 114.275C774.514 114.275 777.489 117.075 777.489 122.675C776.789 129.442 776.322 132.883 776.089 133C775.857 133 775.739 133.35 775.739 134.05C775.972 134.05 776.731 133 778.014 130.9C785.131 120.167 790.615 112.817 794.464 108.85C799.597 103.717 803.739 101.15 806.889 101.15C810.156 101.733 812.256 102.375 813.189 103.075C816.806 105.875 818.614 110.133 818.614 115.85C818.614 116.433 818.556 117.483 818.439 119C818.322 120.4 818.206 122.325 818.089 124.775C817.972 127.108 817.797 128.975 817.564 130.375C817.564 130.842 817.622 131.075 817.739 131.075C817.972 131.075 818.615 130.492 819.664 129.325C825.964 122.092 831.622 118.475 836.639 118.475C840.022 118.475 843.289 119.758 846.439 122.325C849.589 124.892 851.164 128.683 851.164 133.7C850.932 140.817 850.581 145.892 850.114 148.925C849.764 149.275 849.414 150.5 849.064 152.6C848.831 154.7 848.656 155.808 848.539 155.925C847.022 161.642 846.089 166.075 845.739 169.225C845.389 171.325 845.156 172.433 845.039 172.55C844.922 172.667 844.631 174.475 844.164 177.975C844.047 178.792 843.872 179.55 843.639 180.25C843.522 180.95 843.464 181.65 843.464 182.35C843.464 184.8 843.814 186.783 844.514 188.3C844.864 189 845.272 189.35 845.739 189.35C850.989 189.35 856.881 183.925 863.414 173.075C866.448 168.175 870.939 159.25 876.889 146.3L881.789 135.625C882.256 134.692 883.131 134.225 884.414 134.225C885.581 134.225 886.164 134.75 886.164 135.8C884.531 142.217 879.689 152.717 871.639 167.3C861.722 185.15 853.497 194.075 846.964 194.075ZM751.939 176.225C754.739 158.492 759.815 139.767 767.164 120.05C762.964 128.45 759.464 137.725 756.664 147.875C753.865 158.025 752.289 167.475 751.939 176.225ZM755.964 170.975C759.232 149.625 763.547 134.05 768.914 124.25C766.815 128.8 764.482 135.683 761.914 144.9C759.347 154 757.365 162.692 755.964 170.975ZM799.189 169.75C808.639 149.917 813.364 133.175 813.364 119.525C813.364 116.142 813.014 112.875 812.314 109.725C812.431 111.475 812.489 113.283 812.489 115.15C812.489 130.083 808.056 148.283 799.189 169.75ZM798.489 166.425C800.122 160.125 801.756 154.233 803.389 148.75C807.822 134.633 810.039 124.192 810.039 117.425V116.375C809.339 124.075 806.131 137.725 800.414 157.325C799.597 160.358 798.956 163.392 798.489 166.425ZM835.764 179.375L841.539 156.625C844.107 146.125 845.389 138.308 845.389 133.175C845.389 132.242 845.331 130.725 845.214 128.625C845.214 126.525 844.397 125.008 842.764 124.075C843.931 125.592 844.514 128.217 844.514 131.95C844.514 132.533 844.456 134.167 844.339 136.85C844.222 139.533 843.347 144.667 841.714 152.25C840.197 159.833 838.214 168.875 835.764 179.375ZM833.664 173.075C838.797 154.875 841.364 142.742 841.364 136.675C841.364 134.575 841.072 133.058 840.489 132.125L840.664 134.4C840.664 140.7 838.331 153.592 833.664 173.075Z" fill="#42615A"/>
</svg>
